<svg fill="none" height="24" viewBox="0 0 24 24" width="24" xmlns="http://www.w3.org/2000/svg"><path d="m10.2635 20.526c2.2772-.0005 4.4888-.7628 6.2826-2.1655l5.6398 5.6395 1.8141-1.814-5.6398-5.6395c1.4035-1.7939 2.1663-4.0058 2.1669-6.2835 0-5.65877-4.6045-10.263-10.2636-10.263-5.65902 0-10.2635 4.60423-10.2635 10.263 0 5.6587 4.60448 10.263 10.2635 10.263zm0-17.96025c4.2453 0 7.6977 3.45221 7.6977 7.69725 0 4.245-3.4524 7.6972-7.6977 7.6972-4.24522 0-7.69762-3.4522-7.69762-7.6972 0-4.24504 3.4524-7.69725 7.69762-7.69725z" fill="#8d8d8d"/></svg>