<svg fill="none" height="12" viewBox="0 0 21 12" width="21" xmlns="http://www.w3.org/2000/svg"><path d="m19.579.896027c.14-.465 0-.8060001-.662-.8060001h-2.193c-.558 0-.813.2950001-.953.6190001 0 0-1.115 2.719003-2.695 4.482003-.51.513-.743.675-1.021.675-.139 0-.341-.162-.341-.627v-4.343003c0-.558-.161-.8060001-.626-.8060001h-3.446c-.348 0-.558.2580001-.558.5040001 0 .528003.79.650003.871 2.138003v3.228c0 .707-.127.836-.407.836-.743 0-2.551-2.729-3.624-5.853003-.209-.607-.42-.8519997-.98-.8519997h-2.192c-.627 0-.752.2949997-.752.6189997 0 .582003.743 3.462003 3.461 7.271003 1.812 2.60097 4.363 4.01097 6.687 4.01097 1.393 0 1.565-.313 1.565-.853v-1.96597c0-.626.133-.752.574-.752.324 0 .882.164 2.183 1.417 1.486 1.48597 1.732 2.15297 2.567 2.15297h2.192c.626 0 .939-.313.759-.931-.197-.615-.907-1.50997-1.849-2.56897-.512-.604-1.277-1.254-1.51-1.579-.325-.419-.231-.604 0-.976.001.001 2.672-3.761 2.95-5.040003z" fill="#8d8d8d"/></svg>