<svg fill="none" height="26" viewBox="0 0 26 26" width="26" xmlns="http://www.w3.org/2000/svg"><path d="m11.1188 22.2365c2.467-.0005 4.8629-.8263 6.8061-2.346l6.1098 6.1095 1.9653-1.9651-6.1098-6.1095c1.5205-1.9434 2.3469-4.3397 2.3475-6.8072 0-6.13028-4.9882-11.1182-11.1189-11.1182-6.13061 0-11.1188 4.98792-11.1188 11.1182 0 6.1304 4.98819 11.1183 11.1188 11.1183zm0-19.45694c4.5991 0 8.3392 3.7399 8.3392 8.33864 0 4.5988-3.7401 8.3387-8.3392 8.3387-4.59899 0-8.33909-3.7399-8.33909-8.3387 0-4.59874 3.7401-8.33864 8.33909-8.33864z" fill="#e11c4b"/></svg>