<svg fill="none" height="18" viewBox="0 0 16 18" width="16" xmlns="http://www.w3.org/2000/svg"><path d="m3 4.49996v-1.80001c.00001-.52121.16765-1.03128.48266-1.46863.31502-.437358.76396-.783303 1.29263-.996082.52866-.2127778 1.11446-.2832928 1.68667-.203033.57222.08026 1.10639.307864 1.53804.655338.43165-.347474.96582-.575078 1.53804-.655338.57226-.0802598 1.15796-.0097448 1.68666.203033.5287.212779.9776.558724 1.2926.996082.3151.43735.4827.94742.4827 1.46863v1.80001h1.5c.3978 0 .7794.14223 1.0607.3954.2813.25318.4393.59656.4393.9546v9.00454c0 .8342-.3682 1.6343-1.0237 2.2242-.6554.5899-1.5444.9213-2.4713.9213h-8.505c-1.06087 0-2.07828-.3793-2.82843-1.0544-.750143-.6752-1.17157-1.5908-1.17157-2.5456v-8.55004c0-.35804.158035-.70142.43934-.9546.281304-.25317.66284-.3954 1.06066-.3954zm6.635 12.15004c-.40794-.5267-.62613-1.1535-.625-1.7955v-9.00454h-7.51v8.55004c0 .2955.06466.588.1903.861s.30979.5211.54193.73c.23215.2089.50775.3747.81106.4877.30332.1131.62841.1713.95671.1713zm-2.135-12.15004v-1.80001c0-.35804-.15804-.70142-.43934-.9546-.2813-.25317-.66284-.39541-1.06066-.39541s-.77936.14224-1.06066.39541c-.2813.25318-.43934.59656-.43934.9546v1.80001zm1.5 0h2.5v-1.80001c0-.27789-.0952-.54902-.2728-.77638-.1775-.22735-.4287-.39986-.7192-.49398-.2905-.09411-.60623-.10524-.90404-.03187s-.5632.22767-.75996.44183c.101.27.156.5598.156.8604zm1.51 10.35454c0 .4762.2102.9329.5843 1.2696.3742.3367.8816.5259 1.4107.5259s1.0365-.1892 1.4107-.5259c.3741-.3367.5843-.7934.5843-1.2696v-9.00454h-3.99z" fill="#8d8d8d"/></svg>