<svg fill="none" height="16" viewBox="0 0 8 16" width="8" xmlns="http://www.w3.org/2000/svg"><path d="m1.13526 15.4981c-.26479.0005-.521402-.0865-.72529-.2459-.114753-.0898-.209609-.2-.279137-.3244-.0695283-.1243-.1123616-.2604-.12604674-.4005-.01368516-.14.00204685-.2812.04629464-.4155.0442477-.1342.1161411-.259.2115641-.367l5.077025-5.73014-4.895702-5.74084c-.094135-.10935-.164434-.23517-.206854-.37024-.04242-.13506-.056125-.2767-.040329-.41678.015797-.14008.060784-.27583.132377-.39945.071593-.123623.168379-.232679.284796-.320901.117254-.097323.254567-.170733.403322-.215621.14876-.044889.30574-.060287.4611-.04523.15537.015058.30575.060246.44172.132731.13598.072484.2546.170698.34843.288479l5.47367 6.414352c.16668.19128.2578.43123.2578.67885s-.09112.48756-.2578.67885l-5.66633 6.41434c-.11369.1294-.2581.2316-.42153.2985s-.34126.0965-.51908.0864z" fill="#8d8d8d"/></svg>