<svg fill="none" height="18" viewBox="0 0 18 18" width="18" xmlns="http://www.w3.org/2000/svg"><path d="m11.9079 13.5367.364.0454.2593-.2594 1.5481-1.5487c.1052-.1034.2381-.1742.3825-.2039l-.1507-.7346.1507.7346c.1446-.0296.2946-.0168.4321.0369.0005.0002.001.0004.0016.0006l1.8813.7514c.0005.0003.0011.0005.0017.0007.1379.0564.2563.1523.3402.2758.0837.1231.1294.2682.1313.4172v3.4535c-.0011.1007-.0224.2002-.0627.2925-.0406.093-.0995.1769-.1733.2465s-.1609.1235-.256.1585c-.094.0347-.1939.0501-.294.0455-6.3713-.3978-10.14321-3.2764-12.40621-6.5426-2.28596-3.29933-3.05751-7.03651-3.303392-9.12321-.011392-.10492-.000592-.21108.031705-.31157.0325-.10111.086025-.19418.157037-.273074.07101-.078896.1579-.141838.25493-.184701.09704-.042863.20203-.064682.30808-.064031v.000014h.0046 3.34085c.14819.000624.29285.045488.41545.128893.12287.083581.21797.202059.27304.340219l.00013.00033.75423 1.88979-.00002.00001.00205.00504c.05529.13565.0694.2846.04056.42824-.0288.14344-.09914.27518-.2022.37884-.00015.00015-.0003.0003-.00044.00044l-1.54901 1.54963-.26662.26673.05511.37308.74195-.10959c-.74195.10959-.7419.10996-.74184.11035l.00014.0009.00033.00222.00094.0061.00299.01872c.0025.01533.00606.03633.01079.06264.00947.0526.02368.12654.04371.21898.04002.18473.10345.4443.199.7559.19052.62131.51201 1.46019 1.03788 2.32794 1.05932 1.74807 2.95985 3.62227 6.23813 4.03127z" stroke="#8d8d8d" stroke-width="1.5"/></svg>