<svg fill="none" height="18" viewBox="0 0 19 18" width="19" xmlns="http://www.w3.org/2000/svg"><path d="m12.9873.0003352c-.7247.00807618-1.4681.1613938-2.1954.4758778l-.033.015177-.033.018427c-.461.254343-.88122.572513-1.25476.949573-2.01035-1.883631-5.21091-2.020341-7.40055.11816l-.02202.02167-.02001.02277c-1.920846 2.17352-1.875861 5.52084-.72446 8.1657l.01.02061.01001.02168c1.35606 2.72032 3.88824 5.03182 6.19581 6.93212l.006.0054.005.0044c.14845.1179.40372.3616.69843.6016.29469.2399.62758.5029 1.11468.6038l.10906.0227.11007-.0098c.51124-.0477.71174-.2522 1.04764-.4812.3359-.2291.7077-.5198 1.0897-.838.753-.6271 1.5322-1.35 2.0453-1.8655.0066-.0067.0174-.0162.024-.0228.001-.001.0019-.0023.003-.0032 1.0807-.9991 2.1513-2.1509 3.0589-3.5056.0002-.0004.0007-.0007.0009-.0011.0017-.0025.0033-.0051.005-.0076 1.4394-2.09937 2.1376-4.92851 1.3048-7.71585l-.015-.04987-.02-.04662c-.9349-2.18973-2.9459-3.4767208-5.1201-3.4525248zm.026 1.7148848c1.5665-.03904 2.9396.86966 3.6212 2.42379.6299 2.17581.0854 4.39267-1.0876 6.09959l-.003.0044-.003.0043c-.8172 1.2217-1.8069 2.2911-2.8328 3.2368l-.013.013-.013.013c-.4619.4659-1.2439 1.1915-1.9582 1.7865-.3572.2974-.6996.5633-.96559.7447-.10002.0682-.19512.1147-.27318.1506-.08203-.0485-.18615-.1169-.29416-.2048-.2175-.1771-.4491-.4032-.70145-.6049-.00393-.0033-.00807-.0065-.012-.0098-2.23941-1.8452-4.59825-4.0858-5.73253-6.34458-.92087-2.13122-.88068-4.68211.42025-6.18093 1.76889-1.70383 4.39685-1.33342 5.7075.41517l.6384.85094.61736-.86828c.3553-.49925.7792-.88091 1.2938-1.17071.5395-.22829 1.0754-.34596 1.591-.35879z" fill="#8d8d8d"/></svg>