<svg fill="none" height="16" viewBox="0 0 22 16" width="22" xmlns="http://www.w3.org/2000/svg"><path d="m21.0617 2.98086c-.1195-.44522-.3539-.85124-.6797-1.17742-.3257-.32617-.7315-.56107-1.1765-.68117-1.6383-.440629-8.2055-.440629-8.2055-.440629s-6.56719 0-8.20547.438279c-.44526.11972-.85119.35448-1.17702.68072-.32582.32624-.56007.73246-.679229 1.17788-.438281 1.64062-.438281 5.0625-.438281 5.0625s0 3.42188.438281 5.06018c.241409.9047.953909 1.6172 1.856249 1.8586 1.63828.4406 8.20547.4406 8.20547.4406s6.5672 0 8.2055-.4406c.9047-.2414 1.6148-.9539 1.8562-1.8586.4383-1.6383.4383-5.06018.4383-5.06018s0-3.42188-.4383-5.06016zm-12.14764 8.20074v-6.28121l5.43754 3.11719z" fill="#8d8d8d"/></svg>