<svg fill="none" height="19" viewBox="0 0 18 19" width="18" xmlns="http://www.w3.org/2000/svg"><path d="m17.325 4.10225v-2.88225c0-.39825-.3217-.72-.72-.72h-15.20999c-.398247 0-.719997.32175-.719997.72v2.88225c-.375749.0225-.67499906.33525-.67499906.71775v2.96325c-.00144091.5446.10883106 1.08371.32400006 1.584.09675.2295.215999.4455.350999.65025v7.7625c0 .396.32175.72.719997.72h15.20999c.3983 0 .72-.3217.72-.72v-7.7625c.1371-.20527.2546-.42298.351-.65025.2137-.50175.324-1.035.324-1.584v-2.96325c0-.3825-.2992-.69525-.675-.71775zm-15.02999-1.98225h13.40999v1.98h-13.40999zm8.14499 14.7622h-2.87999v-2.3422h2.87999zm5.265 0h-3.825v-3.0622c0-.3982-.3217-.72-.72-.72h-4.31999c-.39825 0-.72.3218-.72.72v3.0622h-3.825v-5.4494c.06525.0315.13275.063.2025.09.50175.2115 1.035.3172 1.584.3172s1.08-.1057 1.584-.3172c.3105-.1305.603-.2971.87075-.4973.0045-.0022.009-.0022.0135 0 .26858.2011.56106.3681.87075.4973.50175.2115 1.035.3172 1.584.3172s1.07999-.1057 1.58399-.3172c.3105-.1305.603-.2971.8708-.4973.0045-.0022.009-.0022.0135 0 .2685.2011.561.3681.8707.4973.5018.2115 1.035.3172 1.584.3172s1.08-.1057 1.584-.3172c.0675-.0293.135-.0585.2025-.09v5.4494zm.675-9.09895c0 1.3455-1.1025 2.43675-2.4592 2.43675-.918 0-1.719-.49725-2.142-1.23525-.0653-.1125-.1823-.18225-.3128-.18225h-.0135c-.1282 0-.2475.06975-.3127.18225-.2159.37646-.5276.68906-.9034.90602-.37586.21693-.80244.33053-1.23639.32923-.91575 0-1.7145-.495-2.1375-1.23075-.0675-.11475-.189-.18675-.32175-.18675s-.2565.072-.32175.18675c-.21713.37502-.52921.68623-.90485.90229-.37563.21606-.80156.32936-1.2349.32846-1.35675 0-2.45925-1.09125-2.45925-2.43675v-2.052c0-.00675.0045-.01125.01125-.01125h14.73754c.0067 0 .0112.0045.0112.01125z" fill="#8d8d8d"/></svg>