<svg fill="none" height="19" viewBox="0 0 14 19" width="14" xmlns="http://www.w3.org/2000/svg"><path d="m6.95076 17.7198c-.90145-1.3476-1.6644-2.4684-2.31061-3.4176-1.1465-1.6842-1.92555-2.8286-2.4588-3.743-.40769-.69909-.64485-1.22088-.78484-1.70836-.13846-.48217-.19192-.9658-.19192-1.60084 0-3.33564 2.61629-6 5.79545-6s5.79546 2.66436 5.79546 6c0 .63504-.0535 1.11867-.1919 1.60084-.14.48748-.3772 1.00927-.7849 1.70836-.5332.9144-1.3123 2.0588-2.45876 3.743-.64613.9491-1.40895 2.0697-2.31025 3.4171-.01095.0162-.02023.0222-.02562.025-.00672.0035-.01492.0057-.02403.0057s-.0173-.0022-.02403-.0057c-.00544-.0028-.01485-.009-.02593-.0255l-.62272.418zm.04928-6.9073c1.94204 0 3.47726-1.6169 3.47726-3.5625s-1.53522-3.5625-3.47726-3.5625c-1.94203 0-3.47727 1.6169-3.47727 3.5625s1.53524 3.5625 3.47727 3.5625z" stroke="#8d8d8d" stroke-width="1.5"/></svg>