<svg fill="none" height="18" viewBox="0 0 18 18" width="18" xmlns="http://www.w3.org/2000/svg"><g fill="#8d8d8d"><path d="m13.5268 15c-.8138 0-1.4732.6714-1.4732 1.5s.6594 1.5 1.4732 1.5 1.4732-.6714 1.4732-1.5-.6594-1.5-1.4732-1.5zm-5.30359 0c-.8138 0-1.47321.6714-1.47321 1.5s.65941 1.5 1.47321 1.5c.81381 0 1.47322-.6714 1.47322-1.5s-.65941-1.5-1.47322-1.5z"/><g clip-rule="evenodd" fill-rule="evenodd"><path d="m13.5268 15.75c-.3869 0-.7232.3228-.7232.75s.3363.75.7232.75.7232-.3228.7232-.75-.3363-.75-.7232-.75zm-5.30359 0c-.3869 0-.72321.3228-.72321.75s.33631.75.72321.75c.38691 0 .72322-.3228.72322-.75s-.33631-.75-.72322-.75zm3.83039.75c0-.8286.6594-1.5 1.4732-1.5s1.4732.6714 1.4732 1.5-.6594 1.5-1.4732 1.5-1.4732-.6714-1.4732-1.5zm-5.3036 0c0-.8286.65941-1.5 1.47321-1.5.81381 0 1.47322.6714 1.47322 1.5s-.65941 1.5-1.47322 1.5c-.8138 0-1.47321-.6714-1.47321-1.5z"/><path d="m0 .75c0-.414214.335786-.75.75-.75h3.51064c.3403 0 .63795.229112.72503.55808l.96741 3.65468h11.29692c.2447 0 .4739.11934.6143.31973s.1742.45665.0905.68658l-2.8085 7.72343c-.1077.2964-.3894.4937-.7048.4937h-7.02129c-.3403 0-.63795-.2291-.72503-.5581l-3.01184-11.3781h-2.93334c-.414214 0-.75-.33579-.75-.75zm6.35014 4.96276 1.64737 6.22344h5.91869l2.263-6.22344z"/></g></g></svg>