<svg fill="none" height="18" viewBox="0 0 18 18" width="18" xmlns="http://www.w3.org/2000/svg"><g clip-rule="evenodd" fill="#8d8d8d" fill-rule="evenodd"><path d="m10.621 5.31805c0-.99633-.89129-1.77927-1.92942-1.59221l-.00334.0006v-.00001c-.30688.05404-.63656.26114-.90108.60418-.26429.34274-.40845.75207-.40845 1.10782v.75055c0 .35359.14441.76078.41002 1.10375.2656.34296.59711.55231.90429.6091 1.03752.18607 1.92798-.5966 1.92798-1.59247zm-2.23179-3.27962c2.10499-.3783 3.94599 1.23176 3.94599 3.27962v.99131c0 2.04838-1.8419 3.65874-3.94761 3.27933l-.00274-.0005c-.81122-.14889-1.48815-.64752-1.95149-1.24581-.46371-.59877-.76893-1.36698-.76893-2.1534v-.75055c0-.78426.30193-1.55387.76518-2.15464.46271-.60005 1.14141-1.10075 1.9596-1.24536z"/><path d="m9 1.71429c-4.02379 0-7.28571 3.26192-7.28571 7.28571 0 4.0238 3.26192 7.2857 7.28571 7.2857 4.0238 0 7.2857-3.2619 7.2857-7.2857 0-4.02379-3.2619-7.28571-7.2857-7.28571zm-9 7.28571c0-4.97056 4.02944-9 9-9 4.9706 0 9 4.02944 9 9 0 4.9706-4.0294 9-9 9-4.97056 0-9-4.0294-9-9z"/><path d="m8.99985 12.3353c-2.17184 0-4.00372 1.2479-4.76804 2.9676-.19226.4326-.6988.6274-1.13139.4351-.43258-.1922-.6274-.6988-.43514-1.1314 1.04834-2.3587 3.5074-3.9856 6.33457-3.9856 2.82715 0 5.28625 1.6269 6.33455 3.9856.1923.4326-.0025.9392-.4351 1.1314-.4326.1923-.9392-.0025-1.1314-.4351-.7643-1.7197-2.5962-2.9676-4.76805-2.9676z"/></g></svg>