<svg fill="none" height="17" viewBox="0 0 25 17" width="25" xmlns="http://www.w3.org/2000/svg"><g stroke="#8d8d8d"><g stroke-linecap="round" stroke-linejoin="round" stroke-miterlimit="10" stroke-width="1.5"><path d="m5.31548 11.5659-4.04386 3.8886c-.16112-.298-.2624-.6921-.2624-1.115v-12.74096l7.32902 7.06013m7.89156.40852 7.7701-7.49268v12.76499c0 .4133-.0921.793-.2532 1.0909l-5.6473-5.3986m-16.79739-8.63079-.02854-.01875m7.06477 7.27641 2.05786 1.98493c.1105.1057.221.197.3314.2739 1.1187.8651 2.4216.8651 3.5356-.0048.1059-.0769.2164-.173.3177-.2691l2.0716-1.99454"/><path d="m18.0638 9.99731 5.6832 5.43279c-.1934.3701-.4926.6104-.8241.6104h-20.83614c-.32226 0-.61689-.2259-.81485-.5864l5.5603-5.3472"/><path d="m18.8563 1.04102h4.3551c.2716 0 .534.16821.7228.43735.023.02884.046.06248.0644.09612l-7.3474 7.07455-2.0717 1.99456c-.1012.0961-.2117.1922-.3176.2691-1.1141.8699-2.4169.8699-3.5356.0048-.1105-.0769-.221-.1682-.3315-.2739l-2.05782-1.98494-7.32902-7.06014c.01841-.02884.04143-.06248.06445-.09612.19335-.28836.45576-.46138.74119-.46138h3.9039m-3.57106 14.99978s-1.266926.0673-1.1371-2.1555"/></g><path d="m5.37347 1.04102h14.73173" stroke-width="1.35849"/></g></svg>