<svg width="0" height="0" class="hidden">
  <symbol fill="none" xmlns="http://www.w3.org/2000/svg" viewBox="0 0 8 16" id="icon-arrow">
    <path
      d="m1.13526 15.4981c-.26479.0005-.521402-.0865-.72529-.2459-.114753-.0898-.209609-.2-.279137-.3244-.0695283-.1243-.1123616-.2604-.12604674-.4005-.01368516-.14.00204685-.2812.04629464-.4155.0442477-.1342.1161411-.259.2115641-.367l5.077025-5.73014-4.895702-5.74084c-.094135-.10935-.164434-.23517-.206854-.37024-.04242-.13506-.056125-.2767-.040329-.41678.015797-.14008.060784-.27583.132377-.39945.071593-.123623.168379-.232679.284796-.320901.117254-.097323.254567-.170733.403322-.215621.14876-.044889.30574-.060287.4611-.04523.15537.015058.30575.060246.44172.132731.13598.072484.2546.170698.34843.288479l5.47367 6.414352c.16668.19128.2578.43123.2578.67885s-.09112.48756-.2578.67885l-5.66633 6.41434c-.11369.1294-.2581.2316-.42153.2985s-.34126.0965-.51908.0864z"
      fill="#8d8d8d"></path>
  </symbol>
  <symbol fill="none" xmlns="http://www.w3.org/2000/svg" viewBox="0 0 18 18" id="icon-cart">
    <g fill="#8d8d8d">
      <path
        d="m13.5268 15c-.8138 0-1.4732.6714-1.4732 1.5s.6594 1.5 1.4732 1.5 1.4732-.6714 1.4732-1.5-.6594-1.5-1.4732-1.5zm-5.30359 0c-.8138 0-1.47321.6714-1.47321 1.5s.65941 1.5 1.47321 1.5c.81381 0 1.47322-.6714 1.47322-1.5s-.65941-1.5-1.47322-1.5z"></path>
      <g clip-rule="evenodd" fill-rule="evenodd">
        <path
          d="m13.5268 15.75c-.3869 0-.7232.3228-.7232.75s.3363.75.7232.75.7232-.3228.7232-.75-.3363-.75-.7232-.75zm-5.30359 0c-.3869 0-.72321.3228-.72321.75s.33631.75.72321.75c.38691 0 .72322-.3228.72322-.75s-.33631-.75-.72322-.75zm3.83039.75c0-.8286.6594-1.5 1.4732-1.5s1.4732.6714 1.4732 1.5-.6594 1.5-1.4732 1.5-1.4732-.6714-1.4732-1.5zm-5.3036 0c0-.8286.65941-1.5 1.47321-1.5.81381 0 1.47322.6714 1.47322 1.5s-.65941 1.5-1.47322 1.5c-.8138 0-1.47321-.6714-1.47321-1.5z"></path>
        <path
          d="m0 .75c0-.414214.335786-.75.75-.75h3.51064c.3403 0 .63795.229112.72503.55808l.96741 3.65468h11.29692c.2447 0 .4739.11934.6143.31973s.1742.45665.0905.68658l-2.8085 7.72343c-.1077.2964-.3894.4937-.7048.4937h-7.02129c-.3403 0-.63795-.2291-.72503-.5581l-3.01184-11.3781h-2.93334c-.414214 0-.75-.33579-.75-.75zm6.35014 4.96276 1.64737 6.22344h5.91869l2.263-6.22344z"></path>
      </g>
    </g>
  </symbol>
  <symbol fill="none" xmlns="http://www.w3.org/2000/svg" viewBox="0 0 19 18" id="icon-favorites">
    <path
      d="m12.9873.0003352c-.7247.00807618-1.4681.1613938-2.1954.4758778l-.033.015177-.033.018427c-.461.254343-.88122.572513-1.25476.949573-2.01035-1.883631-5.21091-2.020341-7.40055.11816l-.02202.02167-.02001.02277c-1.920846 2.17352-1.875861 5.52084-.72446 8.1657l.01.02061.01001.02168c1.35606 2.72032 3.88824 5.03182 6.19581 6.93212l.006.0054.005.0044c.14845.1179.40372.3616.69843.6016.29469.2399.62758.5029 1.11468.6038l.10906.0227.11007-.0098c.51124-.0477.71174-.2522 1.04764-.4812.3359-.2291.7077-.5198 1.0897-.838.753-.6271 1.5322-1.35 2.0453-1.8655.0066-.0067.0174-.0162.024-.0228.001-.001.0019-.0023.003-.0032 1.0807-.9991 2.1513-2.1509 3.0589-3.5056.0002-.0004.0007-.0007.0009-.0011.0017-.0025.0033-.0051.005-.0076 1.4394-2.09937 2.1376-4.92851 1.3048-7.71585l-.015-.04987-.02-.04662c-.9349-2.18973-2.9459-3.4767208-5.1201-3.4525248zm.026 1.7148848c1.5665-.03904 2.9396.86966 3.6212 2.42379.6299 2.17581.0854 4.39267-1.0876 6.09959l-.003.0044-.003.0043c-.8172 1.2217-1.8069 2.2911-2.8328 3.2368l-.013.013-.013.013c-.4619.4659-1.2439 1.1915-1.9582 1.7865-.3572.2974-.6996.5633-.96559.7447-.10002.0682-.19512.1147-.27318.1506-.08203-.0485-.18615-.1169-.29416-.2048-.2175-.1771-.4491-.4032-.70145-.6049-.00393-.0033-.00807-.0065-.012-.0098-2.23941-1.8452-4.59825-4.0858-5.73253-6.34458-.92087-2.13122-.88068-4.68211.42025-6.18093 1.76889-1.70383 4.39685-1.33342 5.7075.41517l.6384.85094.61736-.86828c.3553-.49925.7792-.88091 1.2938-1.17071.5395-.22829 1.0754-.34596 1.591-.35879z"
      fill="#8d8d8d"></path>
  </symbol>
  <symbol fill="none" xmlns="http://www.w3.org/2000/svg" viewBox="0 0 94 48" id="icon-liq-bottom">
    <path d="m93.3609.699028-42.2658 47.300972h-50.221801z" fill="#e11c4b"></path>
  </symbol>
  <symbol fill="none" xmlns="http://www.w3.org/2000/svg" viewBox="0 0 157 158" id="icon-liq-left">
    <path
      d="m156.135 0-155.295334 157.67-.496152-136.911c-1.107469-13.14742-.239729-19.33356 13.396086-20.759z"
      fill="#e11c4b"></path>
  </symbol>
  <symbol fill="none" xmlns="http://www.w3.org/2000/svg" viewBox="0 0 157 158" id="icon-liq-right">
    <path
      d="m.865021 158 155.294979-157.669891.496 136.910891c1.108 13.147.24 19.334-13.396 20.759z"
      fill="#e11c4b"></path>
  </symbol>
  <symbol fill="none" xmlns="http://www.w3.org/2000/svg" viewBox="0 0 94 49" id="icon-liq-top">
    <path d="m.617065 48.2863 42.265835-47.300948h50.2218z" fill="#e11c4b"></path>
  </symbol>
  <symbol fill="none" xmlns="http://www.w3.org/2000/svg" viewBox="0 0 25 17" id="icon-mail">
    <g stroke="#8d8d8d">
      <g stroke-linecap="round" stroke-linejoin="round" stroke-miterlimit="10" stroke-width="1.5">
        <path
          d="m5.31548 11.5659-4.04386 3.8886c-.16112-.298-.2624-.6921-.2624-1.115v-12.74096l7.32902 7.06013m7.89156.40852 7.7701-7.49268v12.76499c0 .4133-.0921.793-.2532 1.0909l-5.6473-5.3986m-16.79739-8.63079-.02854-.01875m7.06477 7.27641 2.05786 1.98493c.1105.1057.221.197.3314.2739 1.1187.8651 2.4216.8651 3.5356-.0048.1059-.0769.2164-.173.3177-.2691l2.0716-1.99454"></path>
        <path
          d="m18.0638 9.99731 5.6832 5.43279c-.1934.3701-.4926.6104-.8241.6104h-20.83614c-.32226 0-.61689-.2259-.81485-.5864l5.5603-5.3472"></path>
        <path
          d="m18.8563 1.04102h4.3551c.2716 0 .534.16821.7228.43735.023.02884.046.06248.0644.09612l-7.3474 7.07455-2.0717 1.99456c-.1012.0961-.2117.1922-.3176.2691-1.1141.8699-2.4169.8699-3.5356.0048-.1105-.0769-.221-.1682-.3315-.2739l-2.05782-1.98494-7.32902-7.06014c.01841-.02884.04143-.06248.06445-.09612.19335-.28836.45576-.46138.74119-.46138h3.9039m-3.57106 14.99978s-1.266926.0673-1.1371-2.1555"></path>
      </g>
      <path d="m5.37347 1.04102h14.73173" stroke-width="1.35849"></path>
    </g>
  </symbol>
  <symbol fill="none" xmlns="http://www.w3.org/2000/svg" viewBox="0 0 18 18" id="icon-phone">
    <path
      d="m11.9079 13.5367.364.0454.2593-.2594 1.5481-1.5487c.1052-.1034.2381-.1742.3825-.2039l-.1507-.7346.1507.7346c.1446-.0296.2946-.0168.4321.0369.0005.0002.001.0004.0016.0006l1.8813.7514c.0005.0003.0011.0005.0017.0007.1379.0564.2563.1523.3402.2758.0837.1231.1294.2682.1313.4172v3.4535c-.0011.1007-.0224.2002-.0627.2925-.0406.093-.0995.1769-.1733.2465s-.1609.1235-.256.1585c-.094.0347-.1939.0501-.294.0455-6.3713-.3978-10.14321-3.2764-12.40621-6.5426-2.28596-3.29933-3.05751-7.03651-3.303392-9.12321-.011392-.10492-.000592-.21108.031705-.31157.0325-.10111.086025-.19418.157037-.273074.07101-.078896.1579-.141838.25493-.184701.09704-.042863.20203-.064682.30808-.064031v.000014h.0046 3.34085c.14819.000624.29285.045488.41545.128893.12287.083581.21797.202059.27304.340219l.00013.00033.75423 1.88979-.00002.00001.00205.00504c.05529.13565.0694.2846.04056.42824-.0288.14344-.09914.27518-.2022.37884-.00015.00015-.0003.0003-.00044.00044l-1.54901 1.54963-.26662.26673.05511.37308.74195-.10959c-.74195.10959-.7419.10996-.74184.11035l.00014.0009.00033.00222.00094.0061.00299.01872c.0025.01533.00606.03633.01079.06264.00947.0526.02368.12654.04371.21898.04002.18473.10345.4443.199.7559.19052.62131.51201 1.46019 1.03788 2.32794 1.05932 1.74807 2.95985 3.62227 6.23813 4.03127z"
      stroke="#8d8d8d" stroke-width="1.5"></path>
  </symbol>
  <symbol fill="none" xmlns="http://www.w3.org/2000/svg" viewBox="0 0 14 19" id="icon-pin">
    <path
      d="m6.95076 17.7198c-.90145-1.3476-1.6644-2.4684-2.31061-3.4176-1.1465-1.6842-1.92555-2.8286-2.4588-3.743-.40769-.69909-.64485-1.22088-.78484-1.70836-.13846-.48217-.19192-.9658-.19192-1.60084 0-3.33564 2.61629-6 5.79545-6s5.79546 2.66436 5.79546 6c0 .63504-.0535 1.11867-.1919 1.60084-.14.48748-.3772 1.00927-.7849 1.70836-.5332.9144-1.3123 2.0588-2.45876 3.743-.64613.9491-1.40895 2.0697-2.31025 3.4171-.01095.0162-.02023.0222-.02562.025-.00672.0035-.01492.0057-.02403.0057s-.0173-.0022-.02403-.0057c-.00544-.0028-.01485-.009-.02593-.0255l-.62272.418zm.04928-6.9073c1.94204 0 3.47726-1.6169 3.47726-3.5625s-1.53522-3.5625-3.47726-3.5625c-1.94203 0-3.47727 1.6169-3.47727 3.5625s1.53524 3.5625 3.47727 3.5625z"
      stroke="#8d8d8d" stroke-width="1.5"></path>
  </symbol>
  <symbol fill="none" xmlns="http://www.w3.org/2000/svg" viewBox="0 0 26 26" id="icon-search-red">
    <path
      d="m11.1188 22.2365c2.467-.0005 4.8629-.8263 6.8061-2.346l6.1098 6.1095 1.9653-1.9651-6.1098-6.1095c1.5205-1.9434 2.3469-4.3397 2.3475-6.8072 0-6.13028-4.9882-11.1182-11.1189-11.1182-6.13061 0-11.1188 4.98792-11.1188 11.1182 0 6.1304 4.98819 11.1183 11.1188 11.1183zm0-19.45694c4.5991 0 8.3392 3.7399 8.3392 8.33864 0 4.5988-3.7401 8.3387-8.3392 8.3387-4.59899 0-8.33909-3.7399-8.33909-8.3387 0-4.59874 3.7401-8.33864 8.33909-8.33864z"
      fill="#e11c4b"></path>
  </symbol>
  <symbol fill="none" xmlns="http://www.w3.org/2000/svg" viewBox="0 0 24 24" id="icon-search">
    <path
      d="m10.2635 20.526c2.2772-.0005 4.4888-.7628 6.2826-2.1655l5.6398 5.6395 1.8141-1.814-5.6398-5.6395c1.4035-1.7939 2.1663-4.0058 2.1669-6.2835 0-5.65877-4.6045-10.263-10.2636-10.263-5.65902 0-10.2635 4.60423-10.2635 10.263 0 5.6587 4.60448 10.263 10.2635 10.263zm0-17.96025c4.2453 0 7.6977 3.45221 7.6977 7.69725 0 4.245-3.4524 7.6972-7.6977 7.6972-4.24522 0-7.69762-3.4522-7.69762-7.6972 0-4.24504 3.4524-7.69725 7.69762-7.69725z"
      fill="#8d8d8d"></path>
  </symbol>
  <symbol fill="none" xmlns="http://www.w3.org/2000/svg" viewBox="0 0 18 19" id="icon-shop">
    <path
      d="m17.325 4.10225v-2.88225c0-.39825-.3217-.72-.72-.72h-15.20999c-.398247 0-.719997.32175-.719997.72v2.88225c-.375749.0225-.67499906.33525-.67499906.71775v2.96325c-.00144091.5446.10883106 1.08371.32400006 1.584.09675.2295.215999.4455.350999.65025v7.7625c0 .396.32175.72.719997.72h15.20999c.3983 0 .72-.3217.72-.72v-7.7625c.1371-.20527.2546-.42298.351-.65025.2137-.50175.324-1.035.324-1.584v-2.96325c0-.3825-.2992-.69525-.675-.71775zm-15.02999-1.98225h13.40999v1.98h-13.40999zm8.14499 14.7622h-2.87999v-2.3422h2.87999zm5.265 0h-3.825v-3.0622c0-.3982-.3217-.72-.72-.72h-4.31999c-.39825 0-.72.3218-.72.72v3.0622h-3.825v-5.4494c.06525.0315.13275.063.2025.09.50175.2115 1.035.3172 1.584.3172s1.08-.1057 1.584-.3172c.3105-.1305.603-.2971.87075-.4973.0045-.0022.009-.0022.0135 0 .26858.2011.56106.3681.87075.4973.50175.2115 1.035.3172 1.584.3172s1.07999-.1057 1.58399-.3172c.3105-.1305.603-.2971.8708-.4973.0045-.0022.009-.0022.0135 0 .2685.2011.561.3681.8707.4973.5018.2115 1.035.3172 1.584.3172s1.08-.1057 1.584-.3172c.0675-.0293.135-.0585.2025-.09v5.4494zm.675-9.09895c0 1.3455-1.1025 2.43675-2.4592 2.43675-.918 0-1.719-.49725-2.142-1.23525-.0653-.1125-.1823-.18225-.3128-.18225h-.0135c-.1282 0-.2475.06975-.3127.18225-.2159.37646-.5276.68906-.9034.90602-.37586.21693-.80244.33053-1.23639.32923-.91575 0-1.7145-.495-2.1375-1.23075-.0675-.11475-.189-.18675-.32175-.18675s-.2565.072-.32175.18675c-.21713.37502-.52921.68623-.90485.90229-.37563.21606-.80156.32936-1.2349.32846-1.35675 0-2.45925-1.09125-2.45925-2.43675v-2.052c0-.00675.0045-.01125.01125-.01125h14.73754c.0067 0 .0112.0045.0112.01125z"
      fill="#8d8d8d"></path>
  </symbol>
  <symbol fill="none" xmlns="http://www.w3.org/2000/svg" viewBox="0 0 16 18" id="icon-shops">
    <path
      d="m3 4.49996v-1.80001c.00001-.52121.16765-1.03128.48266-1.46863.31502-.437358.76396-.783303 1.29263-.996082.52866-.2127778 1.11446-.2832928 1.68667-.203033.57222.08026 1.10639.307864 1.53804.655338.43165-.347474.96582-.575078 1.53804-.655338.57226-.0802598 1.15796-.0097448 1.68666.203033.5287.212779.9776.558724 1.2926.996082.3151.43735.4827.94742.4827 1.46863v1.80001h1.5c.3978 0 .7794.14223 1.0607.3954.2813.25318.4393.59656.4393.9546v9.00454c0 .8342-.3682 1.6343-1.0237 2.2242-.6554.5899-1.5444.9213-2.4713.9213h-8.505c-1.06087 0-2.07828-.3793-2.82843-1.0544-.750143-.6752-1.17157-1.5908-1.17157-2.5456v-8.55004c0-.35804.158035-.70142.43934-.9546.281304-.25317.66284-.3954 1.06066-.3954zm6.635 12.15004c-.40794-.5267-.62613-1.1535-.625-1.7955v-9.00454h-7.51v8.55004c0 .2955.06466.588.1903.861s.30979.5211.54193.73c.23215.2089.50775.3747.81106.4877.30332.1131.62841.1713.95671.1713zm-2.135-12.15004v-1.80001c0-.35804-.15804-.70142-.43934-.9546-.2813-.25317-.66284-.39541-1.06066-.39541s-.77936.14224-1.06066.39541c-.2813.25318-.43934.59656-.43934.9546v1.80001zm1.5 0h2.5v-1.80001c0-.27789-.0952-.54902-.2728-.77638-.1775-.22735-.4287-.39986-.7192-.49398-.2905-.09411-.60623-.10524-.90404-.03187s-.5632.22767-.75996.44183c.101.27.156.5598.156.8604zm1.51 10.35454c0 .4762.2102.9329.5843 1.2696.3742.3367.8816.5259 1.4107.5259s1.0365-.1892 1.4107-.5259c.3741-.3367.5843-.7934.5843-1.2696v-9.00454h-3.99z"
      fill="#8d8d8d"></path>
  </symbol>
  <symbol fill="none" xmlns="http://www.w3.org/2000/svg" viewBox="0 0 21 18" id="icon-tg">
    <path
      d="m18.665.758019-17.729997 6.837001c-1.21.486-1.203 1.161-.222 1.462l4.551997 1.41998 10.532-6.64498c.498-.303.953-.14.579.192l-8.533 7.70098h-.002l.002.001-.314 4.692c.46 0 .663-.211.921-.46l2.211-2.15 4.599 3.397c.848.467 1.457.227 1.668-.785l3.019-14.22798c.309-1.239001-.473-1.800001-1.282-1.434001z"
      fill="#8d8d8d"></path>
  </symbol>
  <symbol fill="none" xmlns="http://www.w3.org/2000/svg" viewBox="0 0 18 18" id="icon-user">
    <g clip-rule="evenodd" fill="#8d8d8d" fill-rule="evenodd">
      <path
        d="m10.621 5.31805c0-.99633-.89129-1.77927-1.92942-1.59221l-.00334.0006v-.00001c-.30688.05404-.63656.26114-.90108.60418-.26429.34274-.40845.75207-.40845 1.10782v.75055c0 .35359.14441.76078.41002 1.10375.2656.34296.59711.55231.90429.6091 1.03752.18607 1.92798-.5966 1.92798-1.59247zm-2.23179-3.27962c2.10499-.3783 3.94599 1.23176 3.94599 3.27962v.99131c0 2.04838-1.8419 3.65874-3.94761 3.27933l-.00274-.0005c-.81122-.14889-1.48815-.64752-1.95149-1.24581-.46371-.59877-.76893-1.36698-.76893-2.1534v-.75055c0-.78426.30193-1.55387.76518-2.15464.46271-.60005 1.14141-1.10075 1.9596-1.24536z"></path>
      <path
        d="m9 1.71429c-4.02379 0-7.28571 3.26192-7.28571 7.28571 0 4.0238 3.26192 7.2857 7.28571 7.2857 4.0238 0 7.2857-3.2619 7.2857-7.2857 0-4.02379-3.2619-7.28571-7.2857-7.28571zm-9 7.28571c0-4.97056 4.02944-9 9-9 4.9706 0 9 4.02944 9 9 0 4.9706-4.0294 9-9 9-4.97056 0-9-4.0294-9-9z"></path>
      <path
        d="m8.99985 12.3353c-2.17184 0-4.00372 1.2479-4.76804 2.9676-.19226.4326-.6988.6274-1.13139.4351-.43258-.1922-.6274-.6988-.43514-1.1314 1.04834-2.3587 3.5074-3.9856 6.33457-3.9856 2.82715 0 5.28625 1.6269 6.33455 3.9856.1923.4326-.0025.9392-.4351 1.1314-.4326.1923-.9392-.0025-1.1314-.4351-.7643-1.7197-2.5962-2.9676-4.76805-2.9676z"></path>
    </g>
  </symbol>
  <symbol fill="none" xmlns="http://www.w3.org/2000/svg" viewBox="0 0 21 12" id="icon-vk">
    <path
      d="m19.579.896027c.14-.465 0-.8060001-.662-.8060001h-2.193c-.558 0-.813.2950001-.953.6190001 0 0-1.115 2.719003-2.695 4.482003-.51.513-.743.675-1.021.675-.139 0-.341-.162-.341-.627v-4.343003c0-.558-.161-.8060001-.626-.8060001h-3.446c-.348 0-.558.2580001-.558.5040001 0 .528003.79.650003.871 2.138003v3.228c0 .707-.127.836-.407.836-.743 0-2.551-2.729-3.624-5.853003-.209-.607-.42-.8519997-.98-.8519997h-2.192c-.627 0-.752.2949997-.752.6189997 0 .582003.743 3.462003 3.461 7.271003 1.812 2.60097 4.363 4.01097 6.687 4.01097 1.393 0 1.565-.313 1.565-.853v-1.96597c0-.626.133-.752.574-.752.324 0 .882.164 2.183 1.417 1.486 1.48597 1.732 2.15297 2.567 2.15297h2.192c.626 0 .939-.313.759-.931-.197-.615-.907-1.50997-1.849-2.56897-.512-.604-1.277-1.254-1.51-1.579-.325-.419-.231-.604 0-.976.001.001 2.672-3.761 2.95-5.040003z"
      fill="#8d8d8d"></path>
  </symbol>
  <symbol fill="none" xmlns="http://www.w3.org/2000/svg" viewBox="0 0 22 16" id="icon-yt">
    <path
      d="m21.0617 2.98086c-.1195-.44522-.3539-.85124-.6797-1.17742-.3257-.32617-.7315-.56107-1.1765-.68117-1.6383-.440629-8.2055-.440629-8.2055-.440629s-6.56719 0-8.20547.438279c-.44526.11972-.85119.35448-1.17702.68072-.32582.32624-.56007.73246-.679229 1.17788-.438281 1.64062-.438281 5.0625-.438281 5.0625s0 3.42188.438281 5.06018c.241409.9047.953909 1.6172 1.856249 1.8586 1.63828.4406 8.20547.4406 8.20547.4406s6.5672 0 8.2055-.4406c.9047-.2414 1.6148-.9539 1.8562-1.8586.4383-1.6383.4383-5.06018.4383-5.06018s0-3.42188-.4383-5.06016zm-12.14764 8.20074v-6.28121l5.43754 3.11719z"
      fill="#8d8d8d"></path>
  </symbol>
</svg>